<svg width="1024" height="1024" viewBox="0 0 1024 1024" xmlns="http://www.w3.org/2000/svg">
  <defs>
    <linearGradient id="bg" x1="0.1" y1="0" x2="0.9" y2="1">
      <stop offset="0" stop-color="#FF9D4D"/>
      <stop offset="0.55" stop-color="#F86F2C"/>
      <stop offset="1" stop-color="#E0481C"/>
    </linearGradient>
    <radialGradient id="bgGlow" cx="0.3" cy="0.24" r="0.85">
      <stop offset="0" stop-color="#FFFFFF" stop-opacity="0.30"/>
      <stop offset="0.55" stop-color="#FFFFFF" stop-opacity="0"/>
    </radialGradient>
    <radialGradient id="disc" cx="0.42" cy="0.38" r="0.75">
      <stop offset="0" stop-color="#2A2D34"/>
      <stop offset="0.5" stop-color="#17191E"/>
      <stop offset="1" stop-color="#0B0C0F"/>
    </radialGradient>
    <linearGradient id="sheen" x1="0" y1="0" x2="1" y2="1">
      <stop offset="0" stop-color="#FFFFFF" stop-opacity="0.22"/>
      <stop offset="0.45" stop-color="#FFFFFF" stop-opacity="0"/>
      <stop offset="0.7" stop-color="#FFFFFF" stop-opacity="0.10"/>
      <stop offset="1" stop-color="#FFFFFF" stop-opacity="0"/>
    </linearGradient>
    <radialGradient id="label" cx="0.4" cy="0.36" r="0.8">
      <stop offset="0" stop-color="#FFFDF7"/>
      <stop offset="1" stop-color="#EFE7D3"/>
    </radialGradient>
    <linearGradient id="barrel" x1="0" y1="0" x2="0" y2="1">
      <stop offset="0" stop-color="#3C424B"/>
      <stop offset="0.5" stop-color="#23272D"/>
      <stop offset="1" stop-color="#12151A"/>
    </linearGradient>
    <linearGradient id="gloss" x1="0" y1="0" x2="0" y2="1">
      <stop offset="0" stop-color="#FFFFFF" stop-opacity="0.55"/>
      <stop offset="1" stop-color="#FFFFFF" stop-opacity="0"/>
    </linearGradient>
    <linearGradient id="collar" x1="0" y1="0" x2="0" y2="1">
      <stop offset="0" stop-color="#EDEFF2"/>
      <stop offset="0.5" stop-color="#AEB4BC"/>
      <stop offset="1" stop-color="#7E848C"/>
    </linearGradient>
    <linearGradient id="nib" x1="0" y1="0" x2="1" y2="0">
      <stop offset="0" stop-color="#2C1F0D"/>
      <stop offset="0.4" stop-color="#8A6326"/>
      <stop offset="1" stop-color="#F4BE4E"/>
    </linearGradient>
    <clipPath id="discClip"><circle cx="512" cy="500" r="322"/></clipPath>
    <filter id="discShadow" x="-20%" y="-20%" width="140%" height="140%">
      <feDropShadow dx="0" dy="16" stdDeviation="22" flood-color="#3A0E00" flood-opacity="0.35"/>
    </filter>
    <filter id="penShadow" x="-40%" y="-40%" width="180%" height="180%">
      <feDropShadow dx="-12" dy="22" stdDeviation="22" flood-color="#3A0E00" flood-opacity="0.40"/>
    </filter>
    <filter id="inkSoft" x="-30%" y="-30%" width="160%" height="160%">
      <feDropShadow dx="0" dy="3" stdDeviation="3" flood-color="#000000" flood-opacity="0.20"/>
    </filter>
  </defs>

  <!-- full-bleed background (clipped to the macOS squircle afterwards) -->
  <rect x="0" y="0" width="1024" height="1024" fill="url(#bg)"/>
  <rect x="0" y="0" width="1024" height="1024" fill="url(#bgGlow)"/>

  <!-- vinyl record -->
  <g filter="url(#discShadow)">
    <circle cx="512" cy="500" r="322" fill="url(#disc)"/>
    <g clip-path="url(#discClip)">
      <!-- grooves -->
      <g fill="none" stroke="#FFFFFF" stroke-opacity="0.05">
        <circle cx="512" cy="500" r="300" stroke-width="2"/>
        <circle cx="512" cy="500" r="278" stroke-width="2"/>
        <circle cx="512" cy="500" r="256" stroke-width="2"/>
        <circle cx="512" cy="500" r="234" stroke-width="2"/>
        <circle cx="512" cy="500" r="212" stroke-width="2"/>
        <circle cx="512" cy="500" r="190" stroke-width="2"/>
        <circle cx="512" cy="500" r="168" stroke-width="2"/>
      </g>
      <circle cx="512" cy="500" r="289" fill="none" stroke="#FFFFFF" stroke-opacity="0.10" stroke-width="3"/>
      <!-- diagonal sheen -->
      <rect x="190" y="178" width="644" height="644" fill="url(#sheen)"/>
    </g>
    <!-- center label -->
    <circle cx="512" cy="500" r="132" fill="url(#label)"/>
    <circle cx="512" cy="500" r="132" fill="none" stroke="#000000" stroke-opacity="0.08" stroke-width="3"/>
    <!-- spindle hole -->
    <circle cx="512" cy="500" r="11" fill="#0B0C0F"/>
  </g>

  <!-- handwritten flourish on the label (the rótulo) -->
  <g filter="url(#inkSoft)">
    <path d="M452 560 C 448 488, 466 452, 506 452 C 546 452, 556 502, 506 510
             C 556 514, 584 566, 632 524"
          fill="none" stroke="#1A1E24" stroke-width="22" stroke-linecap="round" stroke-linejoin="round"/>
  </g>

  <!-- marker, nib tip touching the end of the flourish at (632,524) -->
  <g filter="url(#penShadow)">
    <g transform="translate(632 524) rotate(34)">
      <path d="M0 0 L60 -32 L60 32 Z" fill="url(#nib)"/>
      <path d="M0 0 L60 -32 L60 -10 Z" fill="#FFFFFF" fill-opacity="0.18"/>
      <rect x="54" y="-36" width="40" height="72" rx="9" ry="9" fill="url(#collar)"/>
      <rect x="90" y="-58" width="392" height="116" rx="42" ry="42" fill="url(#barrel)"/>
      <rect x="120" y="-45" width="320" height="30" rx="15" ry="15" fill="url(#gloss)"/>
      <rect x="436" y="-58" width="20" height="116" fill="#F6A23C"/>
      <rect x="456" y="-58" width="26" height="116" rx="42" ry="42" fill="#1A1D22"/>
    </g>
  </g>
</svg>
